<svg width="140" height="49" viewBox="0 0 140 49" fill="none" xmlns="http://www.w3.org/2000/svg">
<path fill-rule="evenodd" clip-rule="evenodd" d="M62.1392 0L69.9714 15.8308L78.6097 7.91515L74.8835 0H62.1392Z" fill="white"/>
<path fill-rule="evenodd" clip-rule="evenodd" d="M85.5433 0L54.6523 36.1846H66.9574L75.0298 26.5727L79.4808 36.1846H100.686L103.534 20.0611L106.106 28.9628L113.797 19.7194L108.12 0H85.5433ZM83.2884 17.325L96.2879 2.31002L90.8122 33.3022L83.2884 17.325Z" fill="white"/>
<path fill-rule="evenodd" clip-rule="evenodd" d="M126.583 0L106.31 31.2568H116.48L124.198 19.0251L121.218 36.1846H131.472L137.754 0H126.583Z" fill="white"/>
<path fill-rule="evenodd" clip-rule="evenodd" d="M17.7997 1.47345C17.652 3.04656 17.4029 4.89631 17.5694 6.57209C17.8068 8.97442 19.2896 10.2046 21.2304 10.9715C21.8166 11.203 22.6704 11.545 23.441 11.3732C23.7972 11.2924 24.043 11.05 24.2659 10.9055C24.9217 10.4838 25.7333 10.0922 26.7066 9.97285C28.1645 9.79413 29.5464 10.1727 30.6318 10.4724C31.6649 10.76 33.0162 11.1769 33.8945 11.7054C34.3779 11.9944 34.7263 12.4325 34.9845 12.8736C35.4338 13.6372 35.6161 14.9427 36.6339 15.1708C36.8821 14.1223 36.6819 12.9622 36.7334 11.8041C36.779 10.7379 36.9705 9.65605 37.1615 8.70705C37.437 7.33381 37.8258 5.85838 38.2499 4.50702C38.3157 4.29763 38.5065 3.22433 38.9106 3.37478C39.0866 3.44109 39.0482 3.88077 39.0412 4.10798C39.0169 4.99922 38.9452 5.65375 38.8768 6.54001C38.7079 8.73153 38.6813 11.1719 39.0748 13.0397C39.2879 14.0505 39.5264 15.0161 39.438 16.1721C39.4152 16.4673 39.2628 16.8107 39.2063 17.1366C39.16 17.4087 39.2054 17.6316 39.1407 17.8394C39.0412 18.1554 38.7761 18.5573 38.5474 18.9043C38.4886 18.9913 38.3793 19.1983 38.2499 19.4386C38.1358 19.6468 37.9417 19.7509 37.9535 19.97C37.9683 20.3082 38.6288 20.9704 38.9753 21.0699C40.4506 21.4916 42.0847 21.7157 42.9659 22.6022C43.4862 23.1258 43.9032 23.8014 43.9884 24.7364C44.0627 25.5297 43.7999 26.1935 43.4932 26.902C43.2848 27.3842 43.087 28.5702 42.7356 28.8015C42.4756 28.9735 42.0525 28.8668 41.7458 29.0367C41.6519 29.4605 41.4543 29.7837 41.416 30.2678C41.1652 30.6243 40.7933 30.8582 40.5264 31.2C40.6115 31.9881 40.1213 32.1915 39.47 32.235C37.5435 33.8236 33.7136 32.7731 32.0821 31.7012C31.2744 32.2837 30.3737 32.7731 30.4673 34.2678C31.1627 34.6623 31.7105 35.1219 32.5446 35.3995C33.6431 35.7708 34.9963 35.5711 35.7109 36.2325C35.7671 36.2855 35.821 36.3509 35.8765 36.4103H41.3967L57.0782 18.006L48.5093 0.149414H17.9063C17.8726 0.606208 17.8413 1.04328 17.7997 1.47345" fill="#FF0000"/>
<path fill-rule="evenodd" clip-rule="evenodd" d="M3.42015 36.2328C4.4102 35.1785 5.84764 34.4531 7.24627 33.8338C8.33629 33.3511 9.45359 32.9366 10.3131 32.2352C10.6942 31.9227 10.9929 31.5997 11.4337 31.5329C12.3017 31.4079 13.1445 31.7932 13.8101 31.9348C15.607 32.3191 16.9795 31.4122 17.8668 30.467C18.3184 29.9891 18.8928 29.5256 19.1527 28.867C19.4804 28.0431 19.335 27.0087 19.3498 25.9699C19.3818 23.8896 20.1207 22.4268 20.1418 20.5045C20.1536 19.5185 19.9165 18.5462 20.0438 17.537C19.0175 17.0042 17.8284 16.4923 17.0084 15.5725C16.211 14.6763 15.2869 13.0048 15.5576 11.54C14.9488 10.5943 14.4095 9.30549 14.4034 7.80653C14.3963 6.32682 14.8395 5.0912 15.2281 3.73983C15.5684 2.55649 15.9104 1.35794 16.2736 0.149414H9.38961L1.63623 36.4106H3.27149C3.32183 36.3526 3.36723 36.2898 3.42015 36.2328" fill="#FF0000"/>
<path fill-rule="evenodd" clip-rule="evenodd" d="M1.07261 43H2.61402L3.00472 46.7102H3.01884L4.97212 43H6.52764L5.45527 48.1243H4.41112L5.33436 44.0476H5.32025L3.17502 48.1243H2.32282L1.83261 44.0476H1.8185L1.05826 48.1243H0L1.07261 43Z" fill="white"/>
<path fill-rule="evenodd" clip-rule="evenodd" d="M7.75575 43H11.627L11.4351 43.9473H8.67923L8.45177 45.0456H11.0018L10.8172 45.9212H8.26712L8.00438 47.1767H10.803L10.6041 48.1243H6.69043L7.75575 43Z" fill="white"/>
<path fill-rule="evenodd" clip-rule="evenodd" d="M12.7484 43H14.2898L14.6805 46.7102H14.6946L16.6479 43H18.2034L17.131 48.1243H16.0869L17.0101 44.0476H16.996L14.8508 48.1243H13.9986L13.5084 44.0476H13.4943L12.734 48.1243H11.6758L12.7484 43Z" fill="white"/>
<path fill-rule="evenodd" clip-rule="evenodd" d="M20.3616 45.0736H21.6259C22.0307 45.0736 22.3789 44.8443 22.3789 44.3991C22.3789 44.0115 22.1516 43.8751 21.7894 43.8751H20.6102L20.3616 45.0736ZM19.9069 47.2483H21.3063C21.8106 47.2483 22.1799 46.9685 22.1799 46.4231C22.1799 45.8845 21.704 45.8418 21.2992 45.8418H20.2052L19.9069 47.2483ZM19.7152 42.9995H21.8461C22.8618 42.9995 23.4941 43.222 23.4941 44.1981C23.4941 44.7794 23.1389 45.3177 22.5424 45.3897V45.4042C23.0253 45.5333 23.2951 45.9497 23.2951 46.4445C23.2951 47.557 22.3718 48.1238 21.3561 48.1238H18.6499L19.7152 42.9995Z" fill="white"/>
<path fill-rule="evenodd" clip-rule="evenodd" d="M25.0912 43H28.9625L28.7705 43.9473H26.0147L25.7872 45.0456H28.3373L28.1526 45.9212H25.6026L25.3398 47.1767H28.1385L27.9395 48.1243H24.0259L25.0912 43Z" fill="white"/>
<path fill-rule="evenodd" clip-rule="evenodd" d="M30.8438 45.3177H31.8736C32.4633 45.3177 33.0246 45.081 33.0246 44.5068C33.0246 43.954 32.6409 43.8751 32.2006 43.8751H31.1423L30.8438 45.3177ZM30.2045 42.9995H32.6268C33.543 42.9995 34.1397 43.3515 34.1397 44.3416C34.1397 45.0377 33.6566 45.6191 32.9747 45.7196V45.7341C33.3939 45.8631 33.5004 46.2363 33.5004 46.6384C33.5004 46.868 33.4649 47.2126 33.4649 47.5282C33.4649 47.7581 33.479 47.9734 33.5359 48.1238H32.4492C32.4207 48.0017 32.3993 47.8945 32.3993 47.7792C32.3993 47.4348 32.4563 47.0831 32.4563 46.7387C32.4563 46.2434 32.1651 46.1217 31.7247 46.1217H30.6733L30.2543 48.1238H29.1392L30.2045 42.9995Z" fill="white"/>
<path fill-rule="evenodd" clip-rule="evenodd" d="M39.2952 47.2985C40.389 47.2985 40.9361 46.1218 40.9361 45.1526C40.9361 44.4349 40.6235 43.825 39.8066 43.825C38.6629 43.825 38.1445 44.9948 38.1445 45.9778C38.1445 46.6815 38.4856 47.2985 39.2952 47.2985ZM39.7995 42.8774C41.1704 42.8774 42.0513 43.6384 42.0513 45.0737C42.0513 46.7604 41.0568 48.2458 39.2811 48.2458C37.8603 48.2458 37.0293 47.4207 37.0293 45.9778C37.0293 44.3203 38.0878 42.8774 39.7995 42.8774Z" fill="white"/>
<path fill-rule="evenodd" clip-rule="evenodd" d="M43.6058 43H47.2141L47.0081 43.9473H44.5222L44.2734 45.1316H46.4471L46.2624 46.0069H44.0958L43.6484 48.1243H42.5332L43.6058 43Z" fill="white"/>
<path fill-rule="evenodd" clip-rule="evenodd" d="M51.219 43.9473H49.6279L49.8267 43H54.0602L53.8612 43.9473H52.3412L51.4747 48.1241H50.3524L51.219 43.9473Z" fill="white"/>
<path fill-rule="evenodd" clip-rule="evenodd" d="M55.6509 45.3177H56.6807C57.2704 45.3177 57.8317 45.081 57.8317 44.5068C57.8317 43.954 57.448 43.8751 57.0077 43.8751H55.9494L55.6509 45.3177ZM55.0116 42.9995H57.4339C58.3501 42.9995 58.9469 43.3515 58.9469 44.3416C58.9469 45.0377 58.4637 45.6191 57.7818 45.7196V45.7341C58.201 45.8631 58.3075 46.2363 58.3075 46.6384C58.3075 46.868 58.272 47.2126 58.272 47.5282C58.272 47.7581 58.2861 47.9734 58.3431 48.1238H57.2563C57.2279 48.0017 57.2065 47.8945 57.2065 47.7792C57.2065 47.4348 57.2634 47.0831 57.2634 46.7387C57.2634 46.2434 56.9722 46.1217 56.5318 46.1217H55.4804L55.0615 48.1238H53.9463L55.0116 42.9995Z" fill="white"/>
<path fill-rule="evenodd" clip-rule="evenodd" d="M61.4883 46.1431H62.8451L62.5965 44.1049H62.5821L61.4883 46.1431ZM62.2272 42.9995H63.3706L64.216 48.1238H63.1078L62.9444 46.9828H61.048L60.4087 48.1238H59.2295L62.2272 42.9995Z" fill="white"/>
<path fill-rule="evenodd" clip-rule="evenodd" d="M66.2468 47.1767H67.1061C68.2427 47.1767 68.8749 46.2724 68.8749 45.1891C68.8749 44.4495 68.5623 43.9473 67.7668 43.9473H66.9285L66.2468 47.1767ZM66.0055 43H67.8378C69.2513 43 69.9901 43.7394 69.9901 44.995C69.9901 46.7822 69.0097 48.1241 67.0564 48.1241H64.9326L66.0055 43Z" fill="white"/>
<path fill-rule="evenodd" clip-rule="evenodd" d="M71.3746 43H72.4968L71.4242 48.1243H70.3018L71.3746 43Z" fill="white"/>
<path fill-rule="evenodd" clip-rule="evenodd" d="M73.6471 43H74.7978L76.1757 46.6458H76.19L76.9145 43H77.937L76.8647 48.1243H75.7495L74.3574 44.5287H74.3431L73.6186 48.1243H72.5742L73.6471 43Z" fill="white"/>
<mask id="mask0_3202_5" style="mask-type:alpha" maskUnits="userSpaceOnUse" x="78" y="42" width="6" height="7">
<path fill-rule="evenodd" clip-rule="evenodd" d="M78.377 42.8779H83.2992V48.2463H78.377V42.8779Z" fill="white"/>
</mask>
<g mask="url(#mask0_3202_5)">
<path fill-rule="evenodd" clip-rule="evenodd" d="M81.9213 47.6006H81.9069C81.5734 48.0598 81.0973 48.2463 80.6285 48.2463C79.208 48.2463 78.377 47.4209 78.377 45.9783C78.377 44.3206 79.4352 42.8779 81.1472 42.8779C82.3334 42.8779 83.2992 43.4376 83.2992 44.6939H82.184C82.1558 44.0765 81.7721 43.8253 81.1542 43.8253C80.0106 43.8253 79.4921 44.9951 79.4921 45.9783C79.4921 46.682 79.833 47.2988 80.6426 47.2988C81.488 47.2988 81.8575 46.8467 82.0492 46.1936H80.8774L81.0547 45.3539H83.207L82.6244 48.1242H81.9213V47.6006Z" fill="white"/>
</g>
<path fill-rule="evenodd" clip-rule="evenodd" d="M87.6307 45.4114H88.7671C89.3283 45.4114 89.6835 45.1245 89.6835 44.5142C89.6835 43.9975 89.2858 43.8753 88.8951 43.8753H87.9431L87.6307 45.4114ZM87.0058 43H89.0371C90.0599 43 90.7987 43.3586 90.7987 44.4928C90.7987 45.6267 89.8752 46.2869 88.824 46.2869H87.4461L87.0625 48.1241H85.9473L87.0058 43Z" fill="white"/>
<path fill-rule="evenodd" clip-rule="evenodd" d="M93.7952 47.2985C94.889 47.2985 95.4361 46.1218 95.4361 45.1526C95.4361 44.4349 95.1235 43.825 94.3068 43.825C93.1629 43.825 92.6445 44.9948 92.6445 45.9778C92.6445 46.6815 92.9856 47.2985 93.7952 47.2985ZM94.2997 42.8774C95.6706 42.8774 96.5513 43.6384 96.5513 45.0737C96.5513 46.7604 95.5568 48.2458 93.7808 48.2458C92.3603 48.2458 91.5293 47.4207 91.5293 45.9778C91.5293 44.3203 92.5876 42.8774 94.2997 42.8774Z" fill="white"/>
<path fill-rule="evenodd" clip-rule="evenodd" d="M98.0562 43H99.1785L98.1059 48.1243H96.9834L98.0562 43Z" fill="white"/>
<path fill-rule="evenodd" clip-rule="evenodd" d="M100.329 43H101.479L102.857 46.6458H102.872L103.596 43H104.619L103.546 48.1243H102.431L101.039 44.5287H101.025L100.3 48.1243H99.2559L100.329 43Z" fill="white"/>
<path fill-rule="evenodd" clip-rule="evenodd" d="M107.055 43.9473H105.464L105.663 43H109.896L109.697 43.9473H108.177L107.311 48.1241H106.188L107.055 43.9473Z" fill="white"/>
<mask id="mask1_3202_5" style="mask-type:alpha" maskUnits="userSpaceOnUse" x="112" y="42" width="6" height="7">
<path fill-rule="evenodd" clip-rule="evenodd" d="M112.153 42.8779H117.076V48.2463H112.153V42.8779Z" fill="white"/>
</mask>
<g mask="url(#mask1_3202_5)">
<path fill-rule="evenodd" clip-rule="evenodd" d="M115.698 47.6006H115.683C115.35 48.0598 114.874 48.2463 114.405 48.2463C112.984 48.2463 112.153 47.4209 112.153 45.9783C112.153 44.3206 113.212 42.8779 114.924 42.8779C116.11 42.8779 117.076 43.4376 117.076 44.6939H115.96C115.932 44.0765 115.549 43.8253 114.931 43.8253C113.787 43.8253 113.269 44.9951 113.269 45.9783C113.269 46.682 113.609 47.2988 114.419 47.2988C115.264 47.2988 115.634 46.8467 115.826 46.1936H114.654L114.831 45.3539H116.983L116.401 48.1242H115.698V47.6006Z" fill="white"/>
</g>
<path fill-rule="evenodd" clip-rule="evenodd" d="M119.291 45.3177H120.321C120.911 45.3177 121.472 45.081 121.472 44.5068C121.472 43.954 121.088 43.8751 120.648 43.8751H119.59L119.291 45.3177ZM118.652 42.9995H121.074C121.99 42.9995 122.587 43.3515 122.587 44.3416C122.587 45.0377 122.104 45.6191 121.422 45.7196V45.7341C121.841 45.8631 121.948 46.2363 121.948 46.6384C121.948 46.868 121.912 47.2126 121.912 47.5282C121.912 47.7581 121.927 47.9734 121.983 48.1238H120.896C120.868 48.0017 120.847 47.8945 120.847 47.7792C120.847 47.4348 120.904 47.0831 120.904 46.7387C120.904 46.2434 120.612 46.1217 120.172 46.1217H119.121L118.702 48.1238H117.586L118.652 42.9995Z" fill="white"/>
<path fill-rule="evenodd" clip-rule="evenodd" d="M125.612 47.2985C126.705 47.2985 127.253 46.1218 127.253 45.1526C127.253 44.4349 126.94 43.825 126.123 43.825C124.979 43.825 124.461 44.9948 124.461 45.9778C124.461 46.6815 124.802 47.2985 125.612 47.2985ZM126.116 42.8774C127.487 42.8774 128.368 43.6384 128.368 45.0737C128.368 46.7604 127.373 48.2458 125.597 48.2458C124.177 48.2458 123.346 47.4207 123.346 45.9778C123.346 44.3203 124.404 42.8774 126.116 42.8774Z" fill="white"/>
<path fill-rule="evenodd" clip-rule="evenodd" d="M133.588 45.9782C133.282 47.4496 132.721 48.2462 131.144 48.2462C130.157 48.2462 129.148 47.8443 129.148 46.7247C129.148 46.4666 129.205 46.2154 129.255 45.9642L129.873 43H130.988L130.37 45.9642C130.335 46.122 130.264 46.4447 130.264 46.6099C130.264 46.8685 130.448 47.2989 131.215 47.2989C132.124 47.2989 132.295 46.811 132.458 46.0357L133.091 43H134.206L133.588 45.9782Z" fill="white"/>
<path fill-rule="evenodd" clip-rule="evenodd" d="M136.045 45.4114H137.181C137.742 45.4114 138.098 45.1245 138.098 44.5142C138.098 43.9975 137.7 43.8753 137.309 43.8753H136.357L136.045 45.4114ZM135.42 43H137.451C138.474 43 139.213 43.3586 139.213 44.4928C139.213 45.6267 138.289 46.2869 137.238 46.2869H135.86L135.477 48.1241H134.361L135.42 43Z" fill="white"/>
</svg>
